<svg xmlns="http://www.w3.org/2000/svg" width="50" height="50" viewBox="0 0 50 50">
  <g id="Gruppe_4778" data-name="Gruppe 4778" transform="translate(-103 -493)">
    <path id="Pfad_1370" data-name="Pfad 1370" d="M26.724,38.91A11.987,11.987,0,0,1,20.568,37.3a11.517,11.517,0,0,1-4.374-4.72,16.08,16.08,0,0,1-1.62-7.5,17.043,17.043,0,0,1,.941-5.84,12.928,12.928,0,0,1,2.653-4.419,11.577,11.577,0,0,1,3.94-2.783,12.117,12.117,0,0,1,4.776-.948,9.783,9.783,0,0,1,4.562,1.039A12.11,12.11,0,0,1,34.7,14.52l.212.226-2.927,3.54L31.712,18a7.971,7.971,0,0,0-2.127-1.591A5.652,5.652,0,0,0,27,15.83a6.2,6.2,0,0,0-3.582,1.079,7.208,7.208,0,0,0-2.477,3.112,12.18,12.18,0,0,0-.912,4.939,13.26,13.26,0,0,0,.855,4.988,6.936,6.936,0,0,0,2.377,3.146,6.615,6.615,0,0,0,6.572.379A9.488,9.488,0,0,0,32.228,31.6l.267-.288,2.931,3.45-.2.227A11.6,11.6,0,0,1,31.454,37.9a10.924,10.924,0,0,1-4.73,1.014m.16-27.12a11.426,11.426,0,0,0-4.5.892,10.868,10.868,0,0,0-3.7,2.617,12.224,12.224,0,0,0-2.507,4.181,16.325,16.325,0,0,0-.9,5.6,15.386,15.386,0,0,0,1.541,7.178,10.818,10.818,0,0,0,4.106,4.44,11.3,11.3,0,0,0,5.8,1.512,10.232,10.232,0,0,0,4.43-.946A10.836,10.836,0,0,0,34.5,34.755l-2.033-2.394a10.058,10.058,0,0,1-2.3,1.727,7.309,7.309,0,0,1-7.308-.422,7.622,7.622,0,0,1-2.624-3.454,13.951,13.951,0,0,1-.905-5.252,12.874,12.874,0,0,1,.97-5.222,7.9,7.9,0,0,1,2.722-3.406A6.883,6.883,0,0,1,27,15.13a6.353,6.353,0,0,1,2.9.658,8.6,8.6,0,0,1,2.036,1.453l2.036-2.462a11.691,11.691,0,0,0-2.853-2.029,9.09,9.09,0,0,0-4.238-.96" transform="translate(103 493)" fill="#fff"/>
    <rect id="Rechteck_2346" data-name="Rechteck 2346" width="50" height="50" transform="translate(103 493)" fill="none"/>
  </g>
</svg>
