<svg xmlns="http://www.w3.org/2000/svg" xmlns:xlink="http://www.w3.org/1999/xlink" width="50" height="50" viewBox="0 0 50 50">
  <defs>
    <clipPath id="clip-path">
      <rect id="Rechteck_2352" data-name="Rechteck 2352" width="37.002" height="13.282" fill="none"/>
    </clipPath>
  </defs>
  <g id="Gruppe_4782" data-name="Gruppe 4782" transform="translate(-223 -433)">
    <rect id="Rechteck_2351" data-name="Rechteck 2351" width="50" height="50" transform="translate(223 433)" fill="none"/>
    <g id="Gruppe_4780" data-name="Gruppe 4780" transform="translate(229.475 451.368)">
      <g id="Gruppe_4779" data-name="Gruppe 4779" transform="translate(0 0)" clip-path="url(#clip-path)">
        <path id="Pfad_1390" data-name="Pfad 1390" d="M.909,23.554c.254-.01.641-.041,1.038-.041s.937.031,1.191.041v-.285l-.468-.051c-.224-.031-.336-.1-.336-.814v-2.88a1.77,1.77,0,0,1,1.079-.387,1.534,1.534,0,0,1,.56.091l.081-.7a1.669,1.669,0,0,0-.438-.061,1.908,1.908,0,0,0-1.282.712v-.763A10.1,10.1,0,0,1,.919,18.9v.244c.661.132.661.255.661.774V22.4c0,.712-.1.774-.336.814l-.336.051Zm5.994.122a1.968,1.968,0,0,0,1.568-.632l-.031-.254a2.964,2.964,0,0,1-1.344.285c-1.14,0-1.69-.916-1.69-2.015a2.948,2.948,0,0,1,.01-.3H8.705a2.25,2.25,0,0,0,.02-.367,1.812,1.812,0,0,0-1.873-1.934A2.408,2.408,0,0,0,4.6,21.152c0,1.557.8,2.524,2.3,2.524M5.448,20.358a1.463,1.463,0,0,1,1.364-1.445,1.117,1.117,0,0,1,1.069,1.222c0,.142-.061.224-.234.224Zm5.771,3.318a1.624,1.624,0,0,0,1.761-1.5c0-1.822-2.565-1.333-2.565-2.514,0-.519.4-.783,1.008-.783a.924.924,0,0,1,1.038.987h.377a8.449,8.449,0,0,1-.02-1.14,3.936,3.936,0,0,0-1.354-.264c-.987,0-1.72.529-1.72,1.344,0,1.842,2.555,1.221,2.555,2.494,0,.57-.448.926-1.089.926-.865,0-1.079-.4-1.17-1.12H9.662a11.731,11.731,0,0,1,.03,1.334,4.816,4.816,0,0,0,1.527.234m5.12,0a1.968,1.968,0,0,0,1.568-.632l-.031-.254a2.964,2.964,0,0,1-1.344.285c-1.14,0-1.69-.916-1.69-2.015a2.948,2.948,0,0,1,.01-.3H18.14a2.211,2.211,0,0,0,.02-.367,1.812,1.812,0,0,0-1.872-1.934,2.408,2.408,0,0,0-2.25,2.687c0,1.557.8,2.524,2.3,2.524m-1.456-3.318a1.464,1.464,0,0,1,1.364-1.445,1.117,1.117,0,0,1,1.069,1.222c0,.142-.061.224-.234.224Zm5.323,3.318a1.7,1.7,0,0,0,1.354-.692h.02a.667.667,0,0,0,.743.692,1.548,1.548,0,0,0,.774-.184v-.285c-.621,0-.8-.142-.8-.641,0-.916.04-1.69.04-2.483a1.514,1.514,0,0,0-1.72-1.618,2.035,2.035,0,0,0-1.394.58l.051.3a2.358,2.358,0,0,1,1.16-.275c.794,0,1.14.417,1.14,1.2v.59c-.153-.01-.408-.01-.55-.01-1.3,0-2.148.611-2.148,1.568a1.244,1.244,0,0,0,1.333,1.262m.275-.591a.767.767,0,0,1-.834-.8c0-.621.468-1,1.516-1,.112,0,.285,0,.4.01-.011.213-.031.977-.031,1.344a1.4,1.4,0,0,1-1.049.448m3.532.468c.255-.01.641-.041,1.038-.041s.936.031,1.191.041v-.285l-.468-.051c-.224-.031-.336-.1-.336-.814v-2.88a1.771,1.771,0,0,1,1.078-.387,1.538,1.538,0,0,1,.56.091l.081-.7a1.67,1.67,0,0,0-.438-.061,1.91,1.91,0,0,0-1.282.712v-.763a10.088,10.088,0,0,1-1.415.488v.244c.662.132.662.255.662.774V22.4c0,.712-.1.774-.336.814l-.336.051Zm6.015.122a1.814,1.814,0,0,0,1.506-.652l-.051-.265a2.144,2.144,0,0,1-1.18.316,1.784,1.784,0,0,1-1.8-2.026c0-1.353.723-2.148,1.588-2.148.723,0,.957.387.987.967h.387c0-.336.01-.824.041-1.16a4.032,4.032,0,0,0-1.354-.244,2.563,2.563,0,0,0-2.443,2.687,2.246,2.246,0,0,0,2.321,2.524m2.453-.122c.255-.01.641-.031,1.038-.031s.8.02,1.058.031v-.285l-.336-.051c-.224-.041-.336-.1-.336-.814V19.463a2.323,2.323,0,0,1,1.181-.4c.865,0,1.069.478,1.069,1.252V22.4c0,.712-.1.774-.336.814l-.336.051v.285c.255-.01.641-.031,1.038-.031s.8.02,1.058.031v-.285l-.336-.051c-.224-.041-.336-.1-.336-.814v-2.2c0-1.028-.346-1.74-1.547-1.74a2.362,2.362,0,0,0-1.456.661V16.348a7.512,7.512,0,0,1-1.415.55v.244c.662.132.662.254.662.774V22.4c0,.712-.1.774-.336.814l-.336.051Z" transform="translate(-0.578 -10.394)" fill="#fff"/>
        <path id="Pfad_1391" data-name="Pfad 1391" d="M2.939,5.51a5.236,5.236,0,0,0,1.815-.3V3.771A4.47,4.47,0,0,1,3.1,4.095c-.865,0-1.07-.324-1.1-.907H5.122a5.3,5.3,0,0,0,.032-.573A2.3,2.3,0,0,0,2.669,0,2.56,2.56,0,0,0,0,2.744C0,4.365.811,5.51,2.939,5.51M2.032,2.139c.021-.378.184-.767.648-.767.41,0,.583.356.583.7v.065ZM7.909,5.51A2.267,2.267,0,0,0,9.367,5v.421h1.891V.087H9.313V3.728a1.132,1.132,0,0,1-.648.281c-.389,0-.583-.173-.583-.659V.087H6.126V3.641A1.63,1.63,0,0,0,7.909,5.51m4.613-.086h1.944V1.945a2.77,2.77,0,0,1,1.167-.27,2.47,2.47,0,0,1,.594.065V.054A1.309,1.309,0,0,0,15.8,0a1.814,1.814,0,0,0-1.372.649V.087h-1.9Zm5.823.086a1.58,1.58,0,0,0,1.394-.67A1.255,1.255,0,0,0,21,5.51a1.517,1.517,0,0,0,.9-.216v-1.2a1.065,1.065,0,0,1-.173.022c-.216,0-.3-.13-.3-.378V2.074C21.425.659,20.722,0,18.993,0a5.56,5.56,0,0,0-1.782.27V1.707a5.55,5.55,0,0,1,1.447-.227c.584,0,.822.205.822.648V2.3c-.076,0-.162-.011-.346-.011-1.459,0-2.517.411-2.517,1.632A1.525,1.525,0,0,0,18.345,5.51M19,4.2c-.3,0-.5-.1-.5-.4,0-.356.194-.5.735-.5a1.984,1.984,0,0,1,.238.011V4A.654.654,0,0,1,19,4.2M25.411,5.51a3.811,3.811,0,0,0,1.382-.248V3.749a2.236,2.236,0,0,1-1.231.292c-.637,0-1.015-.432-1.015-1.232,0-.972.41-1.361,1-1.361a3.139,3.139,0,0,1,1.156.227V.194A4.523,4.523,0,0,0,25.367,0a2.626,2.626,0,0,0-2.852,2.809c0,1.675.886,2.7,2.9,2.7" transform="translate(-0.001 0)" fill="#fff"/>
      </g>
    </g>
  </g>
</svg>
