<svg xmlns="http://www.w3.org/2000/svg" width="50" height="50" viewBox="0 0 50 50">
  <g id="Gruppe_4770" data-name="Gruppe 4770" transform="translate(-223 -373)">
    <path id="Pfad_1383" data-name="Pfad 1383" d="M15.05,34.99a174.1,174.1,0,0,0,19.9-12.137V20.92a172.942,172.942,0,0,1-19.9,11.062Z" transform="translate(223 373)" fill="#fff"/>
    <path id="Pfad_1384" data-name="Pfad 1384" d="M15.05,29.217a151.908,151.908,0,0,0,19.9-9.784v-.955A87.818,87.818,0,0,1,15.05,25.3Z" transform="translate(223 373)" fill="#fff"/>
    <path id="Pfad_1385" data-name="Pfad 1385" d="M34.95,35V25.275C30.42,29.094,25.933,32.4,22.164,35Z" transform="translate(223 373)" fill="#fff"/>
    <path id="Pfad_1386" data-name="Pfad 1386" d="M19.62,35a139.271,139.271,0,0,0,12.249-8.138q1.513-1.134,3.081-2.34V23.316A169.278,169.278,0,0,1,16.906,35Z" transform="translate(223 373)" fill="#fff"/>
    <path id="Pfad_1387" data-name="Pfad 1387" d="M15.05,23.89a78.522,78.522,0,0,0,19.9-6.172V16.634a60.647,60.647,0,0,1-19.9,4.957Z" transform="translate(223 373)" fill="#fff"/>
    <path id="Pfad_1388" data-name="Pfad 1388" d="M15.05,15v5.571c.435-.027.878-.057,1.331-.093A56.768,56.768,0,0,0,34.949,16.17V15Z" transform="translate(223 373)" fill="#fff"/>
    <rect id="Rechteck_2350" data-name="Rechteck 2350" width="50" height="50" transform="translate(223 373)" fill="none"/>
  </g>
</svg>
