<svg xmlns="http://www.w3.org/2000/svg" width="50" height="50" viewBox="0 0 50 50">
  <g id="Gruppe_4774" data-name="Gruppe 4774" transform="translate(-43 -433)">
    <path id="Pfad_1337" data-name="Pfad 1337" d="M38.629,19.477H35.177a.362.362,0,0,0-.357.358v2.934H32.181V19.824a.362.362,0,0,0-.357-.357H28.373a.362.362,0,0,0-.357.357v2.935H25.377V19.824a.362.362,0,0,0-.357-.357H21.47a.362.362,0,0,0-.357.357v2.932l-2.668-.025.093-9.973a.353.353,0,0,0-.1-.251.361.361,0,0,0-.253-.107l-3.379,0-3.378,0a.359.359,0,0,0-.357.357l-.047,10.05c-.009,1.7-.006,3.418,0,5.176,0,1.4.005,2.805,0,4.188q0,1.208,0,2.413v2.653a.363.363,0,0,0,.343.356h7.467l.016,0,.038.018.09-.067a.345.345,0,0,0,.141-.108l.068-.051.008-.034a9.815,9.815,0,0,0,.028-3.617,7.459,7.459,0,0,0,.557-.65,7.744,7.744,0,0,0,.558.65,9.737,9.737,0,0,0,.035,3.646l.019.068.065.006a.338.338,0,0,0,.271.141h6.5a.372.372,0,0,0,0-.744H20.967a10.486,10.486,0,0,1,.03-2.9h.015a6.33,6.33,0,0,0,5.465-2.771,1.591,1.591,0,0,0,.13-1.66c-.325-.481-1.087-.639-2.04-.426a5.675,5.675,0,0,0-4.043,3.762c-.11-.122-.216-.249-.319-.378l.058-.092a8.69,8.69,0,0,0,1.15-2.519,8.161,8.161,0,0,0,.242-1.094,5.336,5.336,0,0,0,.063-.83,3.627,3.627,0,0,0-.781-2.388,2.264,2.264,0,0,0-.408-.378,1.331,1.331,0,0,0-.7-.276.357.357,0,0,0-.1,0,1.355,1.355,0,0,0-.7.275,2.336,2.336,0,0,0-.408.378,3.63,3.63,0,0,0-.78,2.388,5.273,5.273,0,0,0,.061.831,9.275,9.275,0,0,0,1.39,3.608l.062.1q-.149.188-.317.374c-.019-.069-.04-.135-.061-.2A5.661,5.661,0,0,0,14.99,29.1a2.514,2.514,0,0,0-1.634.082,1.053,1.053,0,0,0-.406.344,1.589,1.589,0,0,0,.131,1.66A4.683,4.683,0,0,0,14.2,32.482a6.757,6.757,0,0,0,4.313,1.477h.048a10.53,10.53,0,0,1,.03,2.9H11.736v-.048c0-2.265,0-4.607.012-6.909.012-2.106.01-4.253.008-6.329,0-2.054,0-4.235.008-6.345l.016-4.1,3.024,0c1.008,0,2.016,0,3.016,0l-.091,9.968a.352.352,0,0,0,.1.256.364.364,0,0,0,.249.1l3.382.032a.359.359,0,0,0,.361-.358V20.182h2.837v2.934a.362.362,0,0,0,.357.358h3.353a.362.362,0,0,0,.356-.358V20.182h2.738v2.945a.362.362,0,0,0,.357.357h3.353a.362.362,0,0,0,.357-.357V20.192h2.737v6.4a.357.357,0,0,0,.714,0V19.835a.362.362,0,0,0-.356-.358M19.838,25.5l.016.107.024.006a.408.408,0,0,1,.045.017l.031.013c.013,0,.025.012.04.019l.044.024.041.026c.017.01.031.021.048.032s.03.022.06.046l.025.02a1.812,1.812,0,0,1,.2.2,2.94,2.94,0,0,1,.625,1.924,4.61,4.61,0,0,1-.057.75,8.377,8.377,0,0,1-1.2,3.2,9.057,9.057,0,0,1-.98-2.2,8.8,8.8,0,0,1-.217-1,4.482,4.482,0,0,1-.059-.75A2.957,2.957,0,0,1,19.148,26a1.755,1.755,0,0,1,.193-.193l.037-.029c.018-.015.036-.028.051-.039l.145-.088.162-.058a.309.309,0,0,1,.086,0Zm6.2,4.414c.124.184.063.545-.159.943a5.674,5.674,0,0,1-4.763,2.42,4.928,4.928,0,0,1,3.6-3.5c.64-.142,1.171-.086,1.323.14M14.25,29.695c.064,0,.131.005.2.013l.082.008c.1.014.2.03.308.053a4.922,4.922,0,0,1,3.6,3.5,6.2,6.2,0,0,1-1.12-.111,5.4,5.4,0,0,1-3.642-2.31c-.223-.4-.283-.758-.158-.944a.314.314,0,0,1,.044-.048l.018-.015a.368.368,0,0,1,.077-.051.669.669,0,0,1,.106-.042l.035-.011a1.371,1.371,0,0,1,.14-.031,1.43,1.43,0,0,1,.163-.015h.147Z" transform="translate(43 433)" fill="#fff"/>
    <rect id="Rechteck_2337" data-name="Rechteck 2337" width="50" height="50" transform="translate(43 433)" fill="none"/>
  </g>
</svg>
