<svg xmlns="http://www.w3.org/2000/svg" width="50" height="50" viewBox="0 0 50 50">
  <g id="Gruppe_4776" data-name="Gruppe 4776" transform="translate(-163 -433)">
    <path id="Pfad_1340" data-name="Pfad 1340" d="M10.24,27.195H9.725a.914.914,0,0,1-.883-.887V25.9c0-.032,0-.065,0-.1V22.51a.7.7,0,0,0-.21-.491.687.687,0,0,0-.453-.188H7.5V26.31a2.258,2.258,0,0,0,2.2,2.224h1.2v-.67a.651.651,0,0,0-.208-.488.681.681,0,0,0-.456-.182" transform="translate(163 433)" fill="#fff"/>
    <path id="Pfad_1341" data-name="Pfad 1341" d="M15.06,23.647l-1.164,3.4-1.337-3.87H11.132l1.828,5.358H14.8l1.847-5.368h-.92a.677.677,0,0,0-.664.478" transform="translate(163 433)" fill="#fff"/>
    <path id="Pfad_1342" data-name="Pfad 1342" d="M22.738,28.536V25.68c0-.079-.008-.3-.019-.368A2.439,2.439,0,0,0,20.3,23.173a2.393,2.393,0,0,0-1.1.262V22.5a.666.666,0,0,0-.663-.665H17.86v6.7H19.2V25.6a1.1,1.1,0,0,1,1.1-1.1,1.062,1.062,0,0,1,.9.483,1.124,1.124,0,0,1,.2.625v2.921Z" transform="translate(163 433)" fill="#fff"/>
    <path id="Pfad_1343" data-name="Pfad 1343" d="M33.554,27.191a1.339,1.339,0,1,1,1.337-1.339,1.338,1.338,0,0,1-1.337,1.339m0-4.018a2.675,2.675,0,0,0-2.67,2.561h0V29.87H31.6a.558.558,0,0,0,.43-.2.641.641,0,0,0,.2-.469V28.17a2.676,2.676,0,1,0,1.334-5" transform="translate(163 433)" fill="#fff"/>
    <path id="Pfad_1344" data-name="Pfad 1344" d="M39.829,27.189a1.337,1.337,0,1,1,1.335-1.336,1.336,1.336,0,0,1-1.335,1.336M42.5,25.734a2.677,2.677,0,1,0-1.437,2.491h0a1.23,1.23,0,0,0,.154-.091.679.679,0,0,0,.143.208.64.64,0,0,0,.468.195H42.5v-2.8Z" transform="translate(163 433)" fill="#fff"/>
    <path id="Pfad_1345" data-name="Pfad 1345" d="M27.2,27.189a1.337,1.337,0,1,1,1.335-1.337A1.336,1.336,0,0,1,27.2,27.189m0-4.016a2.677,2.677,0,0,0,0,5.354,2.647,2.647,0,0,0,1.232-.3l.031-.016.022-.01h0a.913.913,0,0,0,.1-.064.668.668,0,0,0,.143.208.641.641,0,0,0,.468.2h.676v-2.8h0a2.674,2.674,0,0,0-2.67-2.561" transform="translate(163 433)" fill="#fff"/>
    <rect id="Rechteck_2343" data-name="Rechteck 2343" width="50" height="50" transform="translate(163 433)" fill="none"/>
  </g>
</svg>
