<svg xmlns="http://www.w3.org/2000/svg" width="50" height="50" viewBox="0 0 50 50">
  <g id="Gruppe_4773" data-name="Gruppe 4773" transform="translate(-43 -373)">
    <path id="Pfad_1335" data-name="Pfad 1335" d="M27.866,12.5v4.308L23.559,12.5H12.938v25h9.024V33.179L26.283,37.5H37.062v-25ZM33,29.463l-6.609,7.194-4.311-4.311L28.2,18.41Zm.756.082,2.64-13.455V35.53ZM28.536,17.5V13.17h7.747l-3,15.278Zm7.7,19.328h-9.1l6.147-6.69ZM16.958,23.941,23.48,13.369l4.31,4.31-6.2,14.1ZM13.751,13.17h9.065l-6.14,9.953Zm7.541,19.408V36.83H13.7l2.992-12.019ZM16.22,23.945l-2.612,10.49V15.06Z" transform="translate(43 373)" fill="#fff"/>
    <rect id="Rechteck_2336" data-name="Rechteck 2336" width="50" height="50" transform="translate(43 373)" fill="none"/>
  </g>
</svg>
