<svg xmlns="http://www.w3.org/2000/svg" width="50" height="50" viewBox="0 0 50 50">
  <g id="Gruppe_4775" data-name="Gruppe 4775" transform="translate(-103 -433)">
    <path id="Pfad_1347" data-name="Pfad 1347" d="M7.947,26.1v4.714H9.432c.259,0,.455-.007.6-.013a1.241,1.241,0,0,0,1.235-1.3,1.175,1.175,0,0,0-.936-1.187.9.9,0,0,0,.434-.244,1.042,1.042,0,0,0,.32-.786,1.057,1.057,0,0,0-.388-.842,1.548,1.548,0,0,0-1.16-.339Zm.936.807h.549a.952.952,0,0,1,.394.061.513.513,0,0,1,.271.475.6.6,0,0,1-.244.482.869.869,0,0,1-.407.061H8.883ZM8.9,28.766h.589a1.107,1.107,0,0,1,.366.041.574.574,0,0,1,.347.576.716.716,0,0,1-.245.55.688.688,0,0,1-.441.108H8.9Z" transform="translate(103 433)" fill="#fff" fill-rule="evenodd"/>
    <path id="Pfad_1348" data-name="Pfad 1348" d="M11.853,27.756l.387.651a1.914,1.914,0,0,1,1-.394c.332,0,.407.129.407.516v.142c-.075-.007-.136-.007-.2-.007-1.107,0-1.669.38-1.669,1.194,0,.692.421,1.085,1.193,1.085a1.2,1.2,0,0,0,.7-.189,1.812,1.812,0,0,0,.211-.183.966.966,0,0,0,.488.42l.481-.556a.71.71,0,0,1-.325-.713v-.06l.02-1.167a1.591,1.591,0,0,0-.061-.624,1.066,1.066,0,0,0-1.119-.6,2.346,2.346,0,0,0-.95.2,3.276,3.276,0,0,0-.563.285M13.637,29.3l-.013.746a.66.66,0,0,1-.475.238.412.412,0,0,1-.4-.455c0-.413.217-.529.847-.529Z" transform="translate(103 433)" fill="#fff" fill-rule="evenodd"/>
    <path id="Pfad_1349" data-name="Pfad 1349" d="M15.427,27.423v2.225a2.047,2.047,0,0,0,.075.691,1.044,1.044,0,0,0,1.024.564,1.3,1.3,0,0,0,.916-.333.784.784,0,0,0,.271.339l.644-.366a1.007,1.007,0,0,1-.21-.631V27.26l-.868.183v2.442a.674.674,0,0,1-.563.332.362.362,0,0,1-.319-.163,1.374,1.374,0,0,1-.074-.569V27.253Z" transform="translate(103 433)" fill="#fff" fill-rule="evenodd"/>
    <path id="Pfad_1350" data-name="Pfad 1350" d="M21.472,29.885a1.354,1.354,0,0,1-.882.347c-.468,0-.732-.305-.732-.841v-.027h2.007v-.211a2.035,2.035,0,0,0-.461-1.519,1.421,1.421,0,0,0-1-.367,1.365,1.365,0,0,0-1.092.469,1.9,1.9,0,0,0-.434,1.377,1.615,1.615,0,0,0,1.641,1.8,2,2,0,0,0,1.309-.481Zm-1.6-1.187v-.012c0-.482.2-.753.543-.753a.44.44,0,0,1,.4.2.9.9,0,0,1,.109.523v.04Z" transform="translate(103 433)" fill="#fff" fill-rule="evenodd"/>
    <path id="Pfad_1351" data-name="Pfad 1351" d="M22.434,27.477a3.134,3.134,0,0,1,.129,1.017v2.32h.909V28.359a.723.723,0,0,1,.556-.292.509.509,0,0,1,.265.068l.25-.8a.7.7,0,0,0-.338-.075.81.81,0,0,0-.3.054,1.512,1.512,0,0,0-.516.441,1.11,1.11,0,0,0-.142-.495Z" transform="translate(103 433)" fill="#fff" fill-rule="evenodd"/>
    <path id="Pfad_1352" data-name="Pfad 1352" d="M24.833,27.484a2.491,2.491,0,0,1,.123.814v2.516h.908V28.359a1.062,1.062,0,0,1,.631-.312c.238,0,.3.115.3.509v2.258h.9V28.278a1.411,1.411,0,0,0-.067-.495.864.864,0,0,0-.834-.5,1.425,1.425,0,0,0-.624.149,3.8,3.8,0,0,0-.4.258.89.89,0,0,0-.129-.434Z" transform="translate(103 433)" fill="#fff" fill-rule="evenodd"/>
    <path id="Pfad_1353" data-name="Pfad 1353" d="M29.516,25.789l-.93.217a3.671,3.671,0,0,1,.061.855v3.215a1.592,1.592,0,0,1-.088.739h.814a.588.588,0,0,0,.1-.251.96.96,0,0,0,.773.319,1.15,1.15,0,0,0,.76-.271,1.939,1.939,0,0,0,.644-1.594c0-1.085-.529-1.764-1.377-1.764a.952.952,0,0,0-.739.278,1.784,1.784,0,0,0,.021-.305v-.82a4.732,4.732,0,0,0-.034-.618m.047,2.5a.7.7,0,0,1,.515-.278.5.5,0,0,1,.5.441,2.5,2.5,0,0,1,.04.59,1.885,1.885,0,0,1-.1.8.425.425,0,0,1-.441.272.714.714,0,0,1-.508-.224Z" transform="translate(103 433)" fill="#fff" fill-rule="evenodd"/>
    <path id="Pfad_1354" data-name="Pfad 1354" d="M32.27,27.423v2.225a2.08,2.08,0,0,0,.074.691,1.047,1.047,0,0,0,1.025.564,1.3,1.3,0,0,0,.915-.333.8.8,0,0,0,.272.339l.645-.366a1.008,1.008,0,0,1-.211-.631V27.26l-.868.183v2.442a.674.674,0,0,1-.563.332.363.363,0,0,1-.319-.163,1.368,1.368,0,0,1-.075-.569V27.253Z" transform="translate(103 433)" fill="#fff" fill-rule="evenodd"/>
    <path id="Pfad_1355" data-name="Pfad 1355" d="M35.832,27.484a2.519,2.519,0,0,1,.122.814v2.516h.908V28.359a1.062,1.062,0,0,1,.631-.312c.238,0,.306.115.306.509v2.258h.9V28.278a1.408,1.408,0,0,0-.068-.495.862.862,0,0,0-.834-.5,1.429,1.429,0,0,0-.624.149,3.906,3.906,0,0,0-.4.258.89.89,0,0,0-.129-.434Z" transform="translate(103 433)" fill="#fff" fill-rule="evenodd"/>
    <path id="Pfad_1356" data-name="Pfad 1356" d="M42.371,25.938l-.9-.142V26.99a4.409,4.409,0,0,0,.026.515.932.932,0,0,0-.616-.2c-.883,0-1.486.746-1.486,1.832S39.95,30.9,40.832,30.9a1.167,1.167,0,0,0,.8-.291.61.61,0,0,0,.055.2H42.5a3.39,3.39,0,0,1-.129-1.269Zm-.888,2.32v1.655a.654.654,0,0,1-.447.224c-.476,0-.632-.244-.632-.991,0-.773.176-1.112.584-1.112a.762.762,0,0,1,.5.224" transform="translate(103 433)" fill="#fff" fill-rule="evenodd"/>
    <path id="Pfad_1357" data-name="Pfad 1357" d="M10.972,19.647A2.767,2.767,0,0,0,9.4,19.172,1.514,1.514,0,0,0,7.71,20.63a1.358,1.358,0,0,0,.2.719,1.43,1.43,0,0,0,.929.6l.523.142c.421.115.618.3.618.61,0,.421-.285.645-.828.645a2.683,2.683,0,0,1-1.3-.38L7.5,23.7a3.359,3.359,0,0,0,1.607.428c1.174,0,1.947-.631,1.947-1.588a1.418,1.418,0,0,0-1.195-1.4l-.569-.156c-.393-.108-.522-.23-.522-.475a.582.582,0,0,1,.657-.542,2.039,2.039,0,0,1,1.1.359Z" transform="translate(103 433)" fill="#fff" fill-rule="evenodd"/>
    <path id="Pfad_1358" data-name="Pfad 1358" d="M12.467,19.2a.533.533,0,0,0-.529.522.519.519,0,1,0,1.038,0,.52.52,0,0,0-.509-.522m1.939.522A.52.52,0,0,0,13.9,19.2a.53.53,0,0,0-.531.522.522.522,0,0,0,.517.523.528.528,0,0,0,.521-.523m-2.665.916v2.225a2.028,2.028,0,0,0,.075.692,1.045,1.045,0,0,0,1.024.563,1.3,1.3,0,0,0,.915-.333.8.8,0,0,0,.271.34l.644-.367a1.013,1.013,0,0,1-.21-.631V20.474l-.868.184V23.1a.673.673,0,0,1-.562.332.366.366,0,0,1-.32-.163,1.389,1.389,0,0,1-.073-.57V20.468Z" transform="translate(103 433)" fill="#fff" fill-rule="evenodd"/>
    <path id="Pfad_1359" data-name="Pfad 1359" d="M18.164,19.152l-.9-.143V20.2a4.15,4.15,0,0,0,.027.516.936.936,0,0,0-.617-.2c-.882,0-1.486.746-1.486,1.832s.556,1.763,1.438,1.763a1.172,1.172,0,0,0,.8-.291.615.615,0,0,0,.053.2h.814a3.391,3.391,0,0,1-.129-1.268Zm-.888,2.32v1.655a.65.65,0,0,1-.447.223c-.476,0-.632-.243-.632-.99,0-.773.177-1.112.584-1.112a.753.753,0,0,1,.495.224" transform="translate(103 433)" fill="#fff" fill-rule="evenodd"/>
    <path id="Pfad_1360" data-name="Pfad 1360" d="M20.83,20.556h-.814A10.342,10.342,0,0,1,20.07,19.5l-.922.231a5.983,5.983,0,0,0-.034.82h-.346v.624h.346v1.886a1.259,1.259,0,0,0,.061.535.937.937,0,0,0,.936.509,1.892,1.892,0,0,0,.739-.156l-.115-.542a1.2,1.2,0,0,1-.326.067c-.312,0-.393-.115-.393-.556V21.18H20.6Z" transform="translate(103 433)" fill="#fff" fill-rule="evenodd"/>
    <path id="Pfad_1361" data-name="Pfad 1361" d="M21.435,20.617v3.411h.909V20.474Zm.468-1.581a.568.568,0,0,0-.57.563.56.56,0,1,0,1.119,0,.554.554,0,0,0-.549-.563" transform="translate(103 433)" fill="#fff" fill-rule="evenodd"/>
    <path id="Pfad_1362" data-name="Pfad 1362" d="M23.157,20.691a3.134,3.134,0,0,1,.129,1.017v2.32h.909V21.573a.723.723,0,0,1,.556-.292.5.5,0,0,1,.264.068l.251-.8a.7.7,0,0,0-.338-.074.806.806,0,0,0-.3.054,1.5,1.5,0,0,0-.516.441,1.11,1.11,0,0,0-.142-.495Z" transform="translate(103 433)" fill="#fff" fill-rule="evenodd"/>
    <path id="Pfad_1363" data-name="Pfad 1363" d="M26.912,20.488a1.609,1.609,0,0,0-1.56,1.818,1.587,1.587,0,0,0,1.56,1.8,1.415,1.415,0,0,0,1.146-.482,1.882,1.882,0,0,0,.434-1.343,1.8,1.8,0,0,0-.4-1.268,1.454,1.454,0,0,0-1.18-.523m.014.672a.486.486,0,0,1,.393.183,1.616,1.616,0,0,1,.183.93c0,.82-.17,1.173-.563,1.173a.5.5,0,0,1-.461-.285,3.293,3.293,0,0,1-.02-1.648.49.49,0,0,1,.468-.353" transform="translate(103 433)" fill="#fff" fill-rule="evenodd"/>
    <path id="Pfad_1364" data-name="Pfad 1364" d="M30.012,19.009l-.929.21a8.957,8.957,0,0,1,.047,1.045v2.591a1.881,1.881,0,0,0,.081.78.816.816,0,0,0,.808.475,1.513,1.513,0,0,0,.542-.1l-.156-.543a.289.289,0,0,1-.1.014.209.209,0,0,1-.184-.095c-.054-.1-.061-.176-.061-.773V19.911a5.177,5.177,0,0,0-.047-.9" transform="translate(103 433)" fill="#fff" fill-rule="evenodd"/>
    <path id="Pfad_1365" data-name="Pfad 1365" d="M33.6,23.1a1.358,1.358,0,0,1-.882.346c-.468,0-.733-.305-.733-.841v-.027h2.008v-.211a2.036,2.036,0,0,0-.461-1.519,1.42,1.42,0,0,0-1-.366,1.364,1.364,0,0,0-1.092.468A1.9,1.9,0,0,0,31,22.326a1.615,1.615,0,0,0,1.641,1.8,1.993,1.993,0,0,0,1.309-.481ZM32,21.912V21.9c0-.481.2-.752.542-.752a.436.436,0,0,1,.4.2.888.888,0,0,1,.11.522v.041Z" transform="translate(103 433)" fill="#fff" fill-rule="evenodd"/>
    <path id="Pfad_1366" data-name="Pfad 1366" d="M34.562,20.691a3.134,3.134,0,0,1,.129,1.017v2.32H35.6V21.573a.722.722,0,0,1,.556-.292.505.505,0,0,1,.264.068l.251-.8a.7.7,0,0,0-.339-.074.8.8,0,0,0-.3.054,1.5,1.5,0,0,0-.516.441,1.11,1.11,0,0,0-.142-.495Z" transform="translate(103 433)" fill="#fff" fill-rule="evenodd"/>
    <rect id="Rechteck_2344" data-name="Rechteck 2344" width="50" height="50" transform="translate(103 433)" fill="none"/>
  </g>
</svg>
