<svg xmlns="http://www.w3.org/2000/svg" width="50" height="50" viewBox="0 0 50 50">
  <g id="Gruppe_4777" data-name="Gruppe 4777" transform="translate(-43 -493)">
    <path id="Pfad_1368" data-name="Pfad 1368" d="M25.085,38.91A13.8,13.8,0,0,1,15.4,34.97l-.234-.229,3.174-3.687.267.252a11.391,11.391,0,0,0,3.1,2.076,8.307,8.307,0,0,0,3.455.788,5.082,5.082,0,0,0,3.183-.844,2.6,2.6,0,0,0,1.027-2.166,2.415,2.415,0,0,0-.445-1.524,4.115,4.115,0,0,0-1.31-1.047,21.022,21.022,0,0,0-2.065-.943l-3.61-1.564a11.943,11.943,0,0,1-2.568-1.46,7.646,7.646,0,0,1-2.1-2.367,6.863,6.863,0,0,1-.826-3.454,6.822,6.822,0,0,1,1.2-3.939,8.372,8.372,0,0,1,3.253-2.755,10.493,10.493,0,0,1,4.7-1.017,11.554,11.554,0,0,1,4.536.928,11.774,11.774,0,0,1,3.75,2.495l.221.221-2.782,3.49-.275-.239a9.428,9.428,0,0,0-2.527-1.6,7.508,7.508,0,0,0-2.923-.553,4.648,4.648,0,0,0-2.793.753,2.3,2.3,0,0,0-.978,1.977A2.047,2.047,0,0,0,22.324,20a4.8,4.8,0,0,0,1.438,1.042,20.2,20.2,0,0,0,2,.865L29.34,23.4A11.945,11.945,0,0,1,32.16,25a7.028,7.028,0,0,1,1.957,2.377,7.517,7.517,0,0,1,.718,3.419,7.361,7.361,0,0,1-1.2,4.07,8.475,8.475,0,0,1-3.376,2.942,11.431,11.431,0,0,1-5.178,1.1M16.127,34.7a13.09,13.09,0,0,0,8.958,3.513,10.745,10.745,0,0,0,4.863-1.022,7.785,7.785,0,0,0,3.1-2.7A6.669,6.669,0,0,0,34.136,30.8a6.834,6.834,0,0,0-.644-3.1,6.333,6.333,0,0,0-1.762-2.142,11.335,11.335,0,0,0-2.658-1.512l-3.562-1.48a20.592,20.592,0,0,1-2.061-.891,5.508,5.508,0,0,1-1.643-1.2,2.746,2.746,0,0,1-.67-1.915A2.993,2.993,0,0,1,22.4,16.018a5.333,5.333,0,0,1,3.208-.888,8.213,8.213,0,0,1,3.195.608,9.928,9.928,0,0,1,2.434,1.483l1.938-2.43a11.173,11.173,0,0,0-3.305-2.129,10.873,10.873,0,0,0-4.262-.872,9.807,9.807,0,0,0-4.385.944,7.7,7.7,0,0,0-2.988,2.525A6.141,6.141,0,0,0,17.154,18.8a6.165,6.165,0,0,0,.735,3.1,6.929,6.929,0,0,0,1.9,2.152,11.152,11.152,0,0,0,2.424,1.378L25.824,27a21.706,21.706,0,0,1,2.126.973A4.8,4.8,0,0,1,29.481,29.2a3.093,3.093,0,0,1,.593,1.957,3.306,3.306,0,0,1-1.291,2.714,5.739,5.739,0,0,1-3.618,1,9,9,0,0,1-3.745-.851A12.122,12.122,0,0,1,18.4,32.062Z" transform="translate(43 493)" fill="#fff"/>
    <rect id="Rechteck_2345" data-name="Rechteck 2345" width="50" height="50" transform="translate(43 493)" fill="none"/>
  </g>
</svg>
