<svg xmlns="http://www.w3.org/2000/svg" width="50" height="50" viewBox="0 0 50 50">
  <g id="Gruppe_4772" data-name="Gruppe 4772" transform="translate(-103 -373)">
    <rect id="Rechteck_2347" data-name="Rechteck 2347" width="12.5" height="1.786" transform="translate(131.124 385.5)" fill="#fff"/>
    <path id="Pfad_1372" data-name="Pfad 1372" d="M15.292,29.372H13.558v-.655a2.339,2.339,0,0,1-1.777.74,2.273,2.273,0,0,1-1.682-.631A2.731,2.731,0,0,1,9.376,26.8V22.253h1.788v4.306a1.289,1.289,0,0,0,.378,1.009,1.112,1.112,0,0,0,.784.288,1.126,1.126,0,0,0,.8-.288,1.286,1.286,0,0,0,.378-1.009V22.253h1.791Z" transform="translate(103 373)" fill="#fff"/>
    <path id="Pfad_1373" data-name="Pfad 1373" d="M22.9,29.372H21.11v-4.3a1.293,1.293,0,0,0-.381-1.012,1.133,1.133,0,0,0-.788-.286,1.145,1.145,0,0,0-.8.286,1.286,1.286,0,0,0-.382,1.012v4.3H16.983V22.253h1.735v.656A2.342,2.342,0,0,1,20.5,22.17a2.271,2.271,0,0,1,1.681.631,2.725,2.725,0,0,1,.723,2.021Z" transform="translate(103 373)" fill="#fff"/>
    <path id="Pfad_1374" data-name="Pfad 1374" d="M26.41,29.373H24.62v-7.12h1.79Zm0-8.324H24.62V19.6h1.79Z" transform="translate(103 373)" fill="#fff"/>
    <path id="Pfad_1375" data-name="Pfad 1375" d="M32.292,25.806a4.4,4.4,0,0,0-.149-1.353,1.133,1.133,0,0,0-2.08,0,4.334,4.334,0,0,0-.15,1.353,4.322,4.322,0,0,0,.15,1.352,1.124,1.124,0,0,0,2.08,0,4.391,4.391,0,0,0,.149-1.352m1.791,0a10.2,10.2,0,0,1-.1,1.638,2.448,2.448,0,0,1-.628,1.368,2.338,2.338,0,0,1-1.735.644,2.285,2.285,0,0,1-1.777-.752v.668H28.124V19.643h1.789V22.88a2.206,2.206,0,0,1,1.718-.709,2.32,2.32,0,0,1,1.727.643,2.441,2.441,0,0,1,.627,1.366,10.123,10.123,0,0,1,.1,1.626" transform="translate(103 373)" fill="#fff"/>
    <path id="Pfad_1376" data-name="Pfad 1376" d="M40.624,29.372H35.2V28.021l3.156-4.169H35.378v-1.6h5.246v1.354l-3.2,4.168h3.2Z" transform="translate(103 373)" fill="#fff"/>
    <rect id="Rechteck_2348" data-name="Rechteck 2348" width="12.5" height="1.786" transform="translate(131.124 408.714)" fill="#fff"/>
    <path id="Pfad_1377" data-name="Pfad 1377" d="M15.292,29.372H13.558v-.655a2.339,2.339,0,0,1-1.777.74,2.273,2.273,0,0,1-1.682-.631A2.731,2.731,0,0,1,9.376,26.8V22.253h1.788v4.306a1.289,1.289,0,0,0,.378,1.009,1.112,1.112,0,0,0,.784.288,1.126,1.126,0,0,0,.8-.288,1.286,1.286,0,0,0,.378-1.009V22.253h1.791Z" transform="translate(103 373)" fill="#fff"/>
    <path id="Pfad_1378" data-name="Pfad 1378" d="M22.9,29.372H21.11v-4.3a1.293,1.293,0,0,0-.381-1.012,1.133,1.133,0,0,0-.788-.286,1.145,1.145,0,0,0-.8.286,1.286,1.286,0,0,0-.382,1.012v4.3H16.983V22.253h1.735v.656A2.342,2.342,0,0,1,20.5,22.17a2.271,2.271,0,0,1,1.681.631,2.725,2.725,0,0,1,.723,2.021Z" transform="translate(103 373)" fill="#fff"/>
    <path id="Pfad_1379" data-name="Pfad 1379" d="M26.41,29.373H24.62v-7.12h1.79Zm0-8.324H24.62V19.6h1.79Z" transform="translate(103 373)" fill="#fff"/>
    <path id="Pfad_1380" data-name="Pfad 1380" d="M32.292,25.806a4.4,4.4,0,0,0-.149-1.353,1.133,1.133,0,0,0-2.08,0,4.334,4.334,0,0,0-.15,1.353,4.322,4.322,0,0,0,.15,1.352,1.124,1.124,0,0,0,2.08,0,4.391,4.391,0,0,0,.149-1.352m1.791,0a10.2,10.2,0,0,1-.1,1.638,2.448,2.448,0,0,1-.628,1.368,2.338,2.338,0,0,1-1.735.644,2.285,2.285,0,0,1-1.777-.752v.668H28.124V19.643h1.789V22.88a2.206,2.206,0,0,1,1.718-.709,2.32,2.32,0,0,1,1.727.643,2.441,2.441,0,0,1,.627,1.366,10.123,10.123,0,0,1,.1,1.626" transform="translate(103 373)" fill="#fff"/>
    <path id="Pfad_1381" data-name="Pfad 1381" d="M40.624,29.372H35.2V28.021l3.156-4.169H35.378v-1.6h5.246v1.354l-3.2,4.168h3.2Z" transform="translate(103 373)" fill="#fff"/>
    <rect id="Rechteck_2349" data-name="Rechteck 2349" width="50" height="50" transform="translate(103 373)" fill="none"/>
  </g>
</svg>
